<?xml version="1.0" encoding="UTF-8" standalone="no"?>
<!-- Created with Inkscape (http://www.inkscape.org/) -->

<svg
   width="87.140884mm"
   height="72.307083mm"
   viewBox="0 0 87.140884 72.307083"
   version="1.1"
   id="svg10504"
   inkscape:version="1.1.1 (3bf5ae0d25, 2021-09-20)"
   sodipodi:docname="rysunek-1.svg"
   xmlns:inkscape="http://www.inkscape.org/namespaces/inkscape"
   xmlns:sodipodi="http://sodipodi.sourceforge.net/DTD/sodipodi-0.dtd"
   xmlns="http://www.w3.org/2000/svg"
   xmlns:svg="http://www.w3.org/2000/svg">
  <sodipodi:namedview
     id="namedview10506"
     pagecolor="#ffffff"
     bordercolor="#666666"
     borderopacity="1.0"
     inkscape:pageshadow="2"
     inkscape:pageopacity="0.0"
     inkscape:pagecheckerboard="0"
     inkscape:document-units="mm"
     showgrid="false"
     inkscape:zoom="0.77771465"
     inkscape:cx="7.7149119"
     inkscape:cy="287.38047"
     inkscape:window-width="2560"
     inkscape:window-height="1387"
     inkscape:window-x="-8"
     inkscape:window-y="-8"
     inkscape:window-maximized="1"
     inkscape:current-layer="layer1" />
  <defs
     id="defs10501">
    <rect
       x="299.51791"
       y="463.52029"
       width="176.91002"
       height="66.189796"
       id="rect11750" />
  </defs>
  <g
     inkscape:label="Warstwa 1"
     inkscape:groupmode="layer"
     id="layer1"
     transform="translate(-103.05842,-72.372231)">
    <g
       id="g10600"
       transform="translate(47.866213,1.6016462)">
      <g
         inkscape:label="Warstwa 1"
         id="layer1-6">
        <g
           id="g24490">
          <path
             style="fill:none;stroke:#000022;stroke-width:0.993357;stroke-linecap:butt;stroke-linejoin:miter;stroke-miterlimit:4;stroke-dasharray:none;stroke-opacity:1"
             d="m 105.14359,72.443581 c 0,0 32.46316,-8.32282 12.77582,19.46285 -18.641065,26.308999 -13.56991,-18.89554 -12.77582,-19.46285 z"
             id="path857"
             sodipodi:nodetypes="csc" />
          <path
             style="fill:none;stroke:#000022;stroke-width:0.993357;stroke-linecap:butt;stroke-linejoin:miter;stroke-miterlimit:4;stroke-dasharray:none;stroke-opacity:1"
             d="m 105.14359,72.443581 c 0,0 -34.017943,-4.96631 -12.425537,19.86514 21.592407,24.831409 13.278257,-19.33304 12.425537,-19.86514 z"
             id="path857-0" />
          <path
             style="fill:none;stroke:#ffb422;stroke-width:0.993357;stroke-linecap:butt;stroke-linejoin:miter;stroke-miterlimit:4;stroke-dasharray:none;stroke-opacity:1"
             d="M 95.480325,98.796837 C 62.061706,97.256638 89.397848,122.159 85.979615,118.41432 72.80153,103.9777 111.21908,112.00157 111.21908,112.00157 l 15.17532,2.59013 c 0,0 -2.8731,-7.55923 5.67594,-11.0343 21.46556,-8.725494 -16.78467,-5.016683 -16.78467,-5.016683"
             id="path1009"
             sodipodi:nodetypes="csccsc" />
          <path
             style="fill:none;stroke:#ffb422;stroke-width:0.993357;stroke-linecap:butt;stroke-linejoin:miter;stroke-miterlimit:4;stroke-dasharray:none;stroke-opacity:1"
             d="m 127.886,109.10966 c 0,0 22.38966,-13.034849 10.42718,8.64317 -11.96248,21.67802 -6.7169,24.90168 -6.7169,24.90168"
             id="path2131"
             sodipodi:nodetypes="csc" />
          <path
             style="fill:none;stroke:#ffb422;stroke-width:0.993357;stroke-linecap:butt;stroke-linejoin:miter;stroke-miterlimit:4;stroke-dasharray:none;stroke-opacity:1"
             d="m 87.104823,119.0288 c 0,0 -11.188956,5.60648 -17.495922,-15.937 -3.753277,-12.820529 -24.751615,-0.97809 -6.684916,17.19726 2.874134,2.89141 12.392693,9.36256 9.004185,15.43781 -3.021721,5.41762 -0.176261,-18.96651 -0.176261,-18.96651 v 0"
             id="path2141"
             sodipodi:nodetypes="cssscc" />
          <path
             style="fill:none;stroke:#000000;stroke-width:0.262039px;stroke-linecap:butt;stroke-linejoin:miter;stroke-opacity:1"
             d="m 79.24745,122.63974 c -8.785629,-7.19453 -11.695238,-8.27473 -15.929716,-12.94285 -3.742495,-4.12577 0.383896,-1.42126 4.477852,2.89363 l 3.956323,4.16984"
             id="path9871"
             sodipodi:nodetypes="cssc" />
          <text
             xml:space="preserve"
             transform="matrix(0.21589224,0,0,0.20784243,15.111028,21.991817)"
             id="text11748"
             style="font-style:normal;font-variant:normal;font-weight:normal;font-stretch:normal;font-size:48px;line-height:1.25;font-family:PMingLiU-ExtB;-inkscape-font-specification:'PMingLiU-ExtB, Normal';font-variant-ligatures:normal;font-variant-caps:normal;font-variant-numeric:normal;font-variant-east-asian:normal;white-space:pre;shape-inside:url(#rect11750);fill:#000000;fill-opacity:1;stroke:none"><tspan
               x="299.51758"
               y="507.95703"
               id="tspan10619">creatoDe</tspan></text>
        </g>
      </g>
      <g
         id="layer2"
         inkscape:label="Warstwa 2" />
    </g>
  </g>
</svg>
