<?xml version="1.0" encoding="UTF-8" standalone="no"?>
<!-- Created with Inkscape (http://www.inkscape.org/) -->

<svg
   width="100px"
   height="100px"
   viewBox="0 0 100 100"
   version="1.1"
   id="SVGRoot"
   sodipodi:docname="logo8.svg"
   inkscape:version="1.1.1 (3bf5ae0d25, 2021-09-20)"
   xmlns:inkscape="http://www.inkscape.org/namespaces/inkscape"
   xmlns:sodipodi="http://sodipodi.sourceforge.net/DTD/sodipodi-0.dtd"
   xmlns:xlink="http://www.w3.org/1999/xlink"
   xmlns="http://www.w3.org/2000/svg"
   xmlns:svg="http://www.w3.org/2000/svg">
  <sodipodi:namedview
     id="namedview834"
     pagecolor="#ffffff"
     bordercolor="#666666"
     borderopacity="1.0"
     inkscape:pageshadow="2"
     inkscape:pageopacity="0.0"
     inkscape:pagecheckerboard="0"
     inkscape:document-units="px"
     showgrid="false"
     inkscape:zoom="8.0029835"
     inkscape:cx="63.226421"
     inkscape:cy="47.857152"
     inkscape:window-width="1920"
     inkscape:window-height="986"
     inkscape:window-x="-11"
     inkscape:window-y="-11"
     inkscape:window-maximized="1"
     inkscape:current-layer="layer1"
     showguides="false" />
  <defs
     id="defs829">
    <linearGradient
       id="linearGradient82482"
       inkscape:swatch="solid">
      <stop
         style="stop-color:#000000;stop-opacity:1;"
         offset="0"
         id="stop82480" />
    </linearGradient>
    <linearGradient
       id="linearGradient81796"
       inkscape:swatch="solid">
      <stop
         style="stop-color:#ffff00;stop-opacity:1;"
         offset="0"
         id="stop81794" />
    </linearGradient>
    <linearGradient
       id="linearGradient81751"
       inkscape:swatch="solid">
      <stop
         style="stop-color:#000000;stop-opacity:1;"
         offset="0"
         id="stop81749" />
    </linearGradient>
    <linearGradient
       id="linearGradient81706"
       inkscape:swatch="solid">
      <stop
         style="stop-color:#ffff00;stop-opacity:1;"
         offset="0"
         id="stop81704" />
    </linearGradient>
    <linearGradient
       id="linearGradient81661"
       inkscape:swatch="solid">
      <stop
         style="stop-color:#ffff00;stop-opacity:1;"
         offset="0"
         id="stop81659" />
    </linearGradient>
    <linearGradient
       id="linearGradient81616"
       inkscape:swatch="solid">
      <stop
         style="stop-color:#ffff00;stop-opacity:1;"
         offset="0"
         id="stop81614" />
    </linearGradient>
    <linearGradient
       id="linearGradient81571"
       inkscape:swatch="solid">
      <stop
         style="stop-color:#ffff00;stop-opacity:1;"
         offset="0"
         id="stop81569" />
    </linearGradient>
    <linearGradient
       id="linearGradient81489"
       inkscape:swatch="solid">
      <stop
         style="stop-color:#ffff00;stop-opacity:1;"
         offset="0"
         id="stop81487" />
    </linearGradient>
    <linearGradient
       id="linearGradient81405"
       inkscape:swatch="solid">
      <stop
         style="stop-color:#000000;stop-opacity:1;"
         offset="0"
         id="stop81403" />
    </linearGradient>
    <rect
       x="16.22647"
       y="37.631483"
       width="123.11823"
       height="41.893021"
       id="rect61376" />
    <rect
       x="16.243166"
       y="29.877968"
       width="70.374741"
       height="54.199472"
       id="rect50192" />
    <linearGradient
       inkscape:collect="always"
       xlink:href="#linearGradient81405"
       id="linearGradient81407"
       x1="25.771016"
       y1="15.740355"
       x2="40.951519"
       y2="15.740355"
       gradientUnits="userSpaceOnUse" />
    <linearGradient
       inkscape:collect="always"
       xlink:href="#linearGradient81405"
       id="linearGradient81491"
       x1="41.636959"
       y1="10.684259"
       x2="45.107437"
       y2="10.684259"
       gradientUnits="userSpaceOnUse" />
    <linearGradient
       inkscape:collect="always"
       xlink:href="#linearGradient81405"
       id="linearGradient81573"
       x1="35.585442"
       y1="2.953831"
       x2="36.792213"
       y2="2.953831"
       gradientUnits="userSpaceOnUse" />
    <linearGradient
       inkscape:collect="always"
       xlink:href="#linearGradient81751"
       id="linearGradient81618"
       x1="24.227558"
       y1="3.9763627"
       x2="26.517725"
       y2="3.9763627"
       gradientUnits="userSpaceOnUse" />
    <linearGradient
       inkscape:collect="always"
       xlink:href="#linearGradient81661"
       id="linearGradient81663"
       x1="19.864657"
       y1="13.158014"
       x2="20.655474"
       y2="13.158014"
       gradientUnits="userSpaceOnUse" />
    <linearGradient
       inkscape:collect="always"
       xlink:href="#linearGradient81751"
       id="linearGradient81708"
       x1="18.664528"
       y1="12.681963"
       x2="21.770035"
       y2="12.681963"
       gradientUnits="userSpaceOnUse" />
    <linearGradient
       inkscape:collect="always"
       xlink:href="#linearGradient81751"
       id="linearGradient81753" />
    <linearGradient
       inkscape:collect="always"
       xlink:href="#linearGradient81751"
       id="linearGradient81798"
       x1="20.961796"
       y1="19.693209"
       x2="23.895178"
       y2="19.693209"
       gradientUnits="userSpaceOnUse" />
    <linearGradient
       inkscape:collect="always"
       xlink:href="#linearGradient81751"
       id="linearGradient82484"
       x1="16.929688"
       y1="53.252937"
       x2="136.25781"
       y2="53.252937"
       gradientUnits="userSpaceOnUse" />
  </defs>
  <g
     inkscape:label="Warstwa 1"
     inkscape:groupmode="layer"
     id="layer1">
    <path
       style="fill:none;stroke:#000000;stroke-width:1px;stroke-linecap:butt;stroke-linejoin:miter;stroke-opacity:1"
       d="m 37.213671,42.246902 c -0.300533,-0.120209 -0.722048,-0.09131 -0.901599,-0.360628 -0.801987,-1.202946 1.464273,-5.974737 2.153818,-6.942101 1.32362,-1.856906 2.781706,-3.551059 4.708346,-4.808381 5.778092,-3.770774 16.892309,-6.875963 21.25434,0.6311 2.610246,4.492237 2.325551,13.534144 -0.03339,18.151639 -0.570122,1.115982 -1.508834,2.408329 -2.738187,2.900055 -0.341278,0.136507 -1.452823,-0.19534 -1.085257,-0.19534 1.340779,0 4.618751,2.957559 3.823444,4.4177 -0.88472,1.624297 -2.973362,2.434219 -4.658257,2.885029 -3.188603,0.853141 -6.35262,0.19414 -8.899107,-1.833195 -1.104061,-0.878977 -2.492269,-2.451193 -4.023799,-2.479322 -1.998077,-0.0367 -3.285279,2.019774 -5.042271,2.584505 -1.344345,0.432098 -3.780941,-1.843781 -4.942093,-2.314034 -1.047672,-0.424294 -1.456848,0.713994 -2.437655,0.165289 -1.360522,-0.761135 -2.001915,-4.18317 -1.636233,-5.499587 0.0942,-0.339126 0.369803,-0.704065 0.567673,-0.991728 0.570372,-0.829209 1.410906,-0.809649 2.003551,-1.743038 0.55868,-0.879896 0.814084,-1.798734 1.268916,-2.719741 0.310557,-0.628859 1.36771,-2.376431 0.617762,-1.848222 -0.327227,0.230475 -0.367318,0.71124 -0.550977,1.06686"
       id="path40566" />
    <path
       style="fill:none;stroke:#000000;stroke-width:1px;stroke-linecap:butt;stroke-linejoin:miter;stroke-opacity:1"
       d="m 33.23996,54.418117 c -0.713169,3.861617 0.815332,6.186263 3.539608,8.790322 2.622432,2.506711 5.988176,3.597133 9.617046,3.320789 1.78598,-0.136005 3.419433,-0.647704 5.109056,-1.202096 0.472362,-0.154989 1.597042,-0.860541 2.120425,-0.766335 0.345823,0.06225 0.828455,0.57272 1.085257,0.751309 1.421253,0.988388 2.917358,1.567197 4.407813,0.195341 0.963642,-0.886962 1.502117,-2.280539 1.703019,-3.546181 0.0382,-0.240658 -0.01528,-0.798943 0.100177,-1.006755 0.355222,-0.639381 0.725196,-1.113589 0.567673,-1.8933 -2e-4,-9.92e-4 -0.922689,-0.167222 -1.035168,-0.195341"
       id="path40568" />
    <path
       style="fill:none;stroke:#000000;stroke-width:1px;stroke-linecap:butt;stroke-linejoin:miter;stroke-opacity:1"
       d="m 37.213671,42.246902 c 2.492776,-3.023861 6.333879,1.356699 3.806747,3.801627 -0.540339,0.522763 -1.4832,0.554848 -2.170514,0.465812 -3.711713,-0.480822 -2.944031,-0.336391 -2.187208,-3.200579"
       id="path40570" />
    <path
       style="fill:none;stroke:#000000;stroke-width:1px;stroke-linecap:butt;stroke-linejoin:miter;stroke-opacity:1"
       d="m 46.179563,44.365595 c 0.473294,-1.426454 1.33204,-2.449799 2.621313,-3.215605 3.38244,-2.00911 6.640216,2.370377 4.391117,5.108906 -1.110162,1.351745 -3.553984,0.639577 -4.908701,-0.07513 -0.285931,-0.150849 -0.490173,-0.527617 -0.801421,-0.616074 -0.332099,-0.09438 -1.168547,0.534475 -1.285612,0.405707 -0.327321,-0.360043 -0.05691,-1.238635 -0.0167,-1.607803 z"
       id="path40574" />
    <path
       style="fill:none;stroke:#000000;stroke-width:1px;stroke-linecap:butt;stroke-linejoin:miter;stroke-opacity:1"
       d="m 41.037114,30.902128 c -0.178093,-0.365637 -0.205478,-0.857543 -0.53428,-1.096912 -1.944621,-1.415692 -7.370527,-1.923386 -9.750617,-1.833195 -0.218951,0.0083 -2.632202,0.116936 -2.554528,0.676178 0.04887,0.35184 3.490538,1.874992 4.107281,2.554453 0.267029,0.294183 1.60224,2.652361 1.385789,3.125448 -0.296429,0.647891 -1.051472,0.798062 -0.851509,1.652881 0.181319,0.775116 0.786805,1.155131 1.268916,1.712985 0.25875,0.299402 0.39182,0.77297 0.601065,1.111939 0.210786,0.341462 0.547678,0.74252 0.617762,1.14199 0.0362,0.206347 0.06678,0.436661 0.06678,0.646126 0,0.07162 -0.22352,0.0913 -0.166963,0.135236 0.658118,0.511292 1.324571,1.011763 1.986856,1.517645"
       id="path40576" />
    <path
       style="fill:none;stroke:#000000;stroke-width:1px;stroke-linecap:butt;stroke-linejoin:miter;stroke-opacity:1"
       d="m 66.098202,35.364907 c 2.368232,-0.267479 4.680183,-0.614586 7.079215,-0.480838 0.411193,0.02292 1.744313,1.2e-4 1.703019,0.706231 -0.103651,1.772377 -4.900078,3.700935 -6.044047,5.018748 -0.585848,0.674876 0.220137,2.012478 -0.233747,2.854976 -0.424167,0.787336 -1.401558,1.526766 -2.237299,1.833195 -0.243706,0.08936 -0.618406,0.193869 -0.884902,0.150262 -0.05515,-0.009 -0.194101,-0.06387 -0.166963,-0.01503 0.105726,0.190301 0.408002,-0.154852 0.601066,-0.255445"
       id="path40580" />
    <path
       style="fill:none;stroke:#000000;stroke-width:1px;stroke-linecap:butt;stroke-linejoin:miter;stroke-opacity:1"
       d="m 75.097487,34.944173 c 0.07792,0.260454 0.286869,0.514744 0.233748,0.781362 -0.124211,0.623425 -1.725086,3.176681 -1.869981,3.39592 -1.879621,2.844017 -3.662208,4.188219 -6.21101,6.19079 -0.603573,0.474223 -1.056108,1.084605 -1.669626,1.547698 -0.01396,0.01053 -1.703018,1.148979 -1.703018,1.172043 0,1.169048 1.354505,-1.905796 2.036944,-2.85498"
       id="path40582" />
    <path
       style="fill:none;stroke:#000000;stroke-width:1px;stroke-linecap:butt;stroke-linejoin:miter;stroke-opacity:1"
       d="m 28.498222,28.888618 c 0.539883,1.507954 1.553515,2.802708 2.05364,4.357596 0.292932,0.910724 -0.599038,1.214333 -0.651154,2.058588 -0.01035,0.167578 0.784959,2.720322 0.918294,3.050317 0.453306,1.121899 1.439411,1.312047 2.036944,2.118693 0.66629,0.899464 0.31154,1.980563 0.617762,2.945133 0.113311,0.356919 0.338298,0.657934 0.467495,1.006755 0.175843,0.474762 0.200883,0.985463 0.400711,1.457541 0.193685,0.457569 0.63748,0.658365 0.768028,1.187069"
       id="path40586" />
    <path
       style="fill:none;stroke:#000000;stroke-width:1px;stroke-linecap:butt;stroke-linejoin:miter;stroke-opacity:1"
       d="m 41.037114,30.902128 c 0.907164,-0.130227 1.805278,-0.369264 2.721491,-0.390681 0.06792,-0.0016 -0.157485,0.478577 -0.584369,1.06686 -0.552354,0.76119 -1.285607,1.455022 -1.602841,2.359112 -0.190496,0.542897 0.702354,0.86444 0.717939,1.397435 0.02565,0.877176 -1.001739,1.412295 -1.185435,2.238903 -0.150731,0.678271 0.486367,1.162948 0.450799,1.803143 -0.03492,0.628536 -0.54955,0.943655 -0.80142,1.472567 -0.161812,0.339795 0.255267,0.09425 0.150266,0.495864 -0.160602,0.614286 -0.326499,0.748763 0.367318,0.51089"
       id="path40590" />
    <path
       style="fill:none;stroke:#000000;stroke-width:1px;stroke-linecap:butt;stroke-linejoin:miter;stroke-opacity:1"
       d="m 50.604072,26.754899 c 0.710834,0.746354 0.858905,0.589651 0.768028,1.652881 -0.164474,1.924288 -2.306373,3.002574 -2.504439,4.072098 -0.135768,0.733126 0.884083,1.419581 0.784724,2.283981 -0.12023,1.045975 -1.338584,1.064194 -1.669626,1.908326 -0.215041,0.54834 0.32502,0.939494 0.467495,1.397436 0.148717,0.478003 -1.071541,0.814863 -1.302308,1.081886 -0.06883,0.07965 0.317989,0.461033 0.367318,0.540943 0.215008,0.348304 -0.250444,0.403131 -0.250444,0.736283 0,0.272717 0.463904,0.08806 0.317229,0.616074"
       id="path40592" />
    <path
       style="fill:none;stroke:#000000;stroke-width:1px;stroke-linecap:butt;stroke-linejoin:miter;stroke-opacity:1"
       d="m 39.751502,48.001934 c 0.700323,-0.537847 1.333902,-0.551048 2.170514,-0.420734 0.689432,0.107389 1.30516,0.358308 1.886678,0.736284 2.628778,1.708655 -1.239334,4.592669 -3.289164,3.921836 -0.490966,-0.160676 -0.757159,-0.500643 -1.118649,-0.841467 -0.457511,-0.431354 -0.682264,-0.95202 -0.500888,-1.57775 0.186442,-0.643206 0.502858,-1.263026 0.851509,-1.818169 z"
       id="path40598" />
    <path
       style="fill:none;stroke:#000000;stroke-width:1px;stroke-linecap:butt;stroke-linejoin:miter;stroke-opacity:1"
       d="m 46.179563,44.365595 c 0.445234,0.205358 0.858368,0.504008 1.335701,0.616074 0.10535,0.02473 0.128808,-0.174257 0.200355,-0.255445 0.204755,-0.232346 0.421114,-0.434525 0.734635,-0.495864 1.323428,-0.258924 0.973616,1.745357 0.651155,2.374138"
       id="path40608" />
    <path
       style="fill:none;stroke:#000000;stroke-width:1px;stroke-linecap:butt;stroke-linejoin:miter;stroke-opacity:1"
       d="m 35.109942,47.07031 c 0.589934,-0.811414 1.098032,-1.689166 1.769803,-2.434243 0.141071,-0.156464 0.393332,-0.160287 0.601066,-0.195341 0.9563,-0.16137 1.836588,0.358283 1.836588,1.38241 0,0.09821 -0.142395,0.175631 -0.116873,0.270471 0.172051,0.639347 0.367317,1.272218 0.550976,1.908327"
       id="path40610" />
    <path
       style="fill:none;stroke:#000000;stroke-width:1px;stroke-linecap:butt;stroke-linejoin:miter;stroke-opacity:1"
       d="m 34.024685,59.211473 c 0.428537,0.245427 0.842212,0.518853 1.285612,0.736283 1.060067,0.519825 2.436816,1.257165 3.623088,1.397436 1.916579,0.226625 4.415703,0.174213 6.244402,-0.465812 0.814797,-0.285171 2.34075,-0.815343 2.938542,-1.532672 0.109421,-0.131301 -0.188157,-0.134259 -0.217051,-0.150262"
       id="path40612" />
    <path
       style="fill:none;stroke:#000000;stroke-width:1px;stroke-linecap:butt;stroke-linejoin:miter;stroke-opacity:1"
       d="m 54.41082,37.99449 c 0.454257,-0.513386 2.509119,-3.606286 3.188985,-3.606286 0.555357,0 -1.951881,3.007277 -1.252219,3.170527 0.469262,0.109491 3.672254,-1.911981 3.84014,-1.247174 0.123311,0.488295 -3.018717,2.181773 -2.704794,2.464295 0.28927,0.260336 3.067125,0.0763 3.022023,0.766336 -0.03902,0.597033 -1.550294,0.154658 -1.836589,0.19534 -0.449407,0.06386 0.935757,0.733054 0.434103,1.442515 -0.672338,0.950849 -1.756983,0.02258 -1.953463,0.405707"
       id="path40694" />
    <path
       style="fill:none;stroke:#000000;stroke-width:1px;stroke-linecap:butt;stroke-linejoin:miter;stroke-opacity:1"
       d="m 54.878315,49.895234 c 0.972435,-0.607588 3.029494,0.02419 2.72149,1.427488 -0.237945,1.084109 -2.891593,-0.485453 -2.971934,0.165288 -0.01645,0.13324 0.61806,0.256932 0.684547,0.330576 0.228839,0.253476 0.447528,0.528591 0.584369,0.841467 0.250816,0.57347 -0.142622,1.728012 -0.868206,1.728012 -0.678596,0 -1.333842,-1.123844 -1.7865,-1.517645 -0.319801,-0.278219 -0.650695,-0.555556 -0.634458,-0.540943 0.446866,0.402167 -0.392639,1.580328 -0.918294,1.126964 -0.596359,-0.514344 -0.0099,-1.601127 -0.918294,-1.412462"
       id="path40696" />
    <path
       style="fill:none;stroke:#000000;stroke-width:1px;stroke-linecap:butt;stroke-linejoin:miter;stroke-opacity:1"
       d="m 46.179563,44.365595 c 0.806986,0.300524 1.613972,0.601048 2.420958,0.901572 -0.02783,0.02504 -0.04826,0.06245 -0.08348,0.07513 -0.252103,0.09075 -0.75016,-0.666022 0.601066,-0.165288 0.103284,0.03827 0.262164,0.13804 0.300532,0.255445 0.101169,0.309568 -1.102371,0.520566 -1.001775,0 0.08193,-0.42399 1.207108,-0.296408 1.168738,0.135236 -0.0156,0.175502 -0.10414,0.279601 -0.250444,0.360628 -0.538294,0.298124 -0.406767,0.05878 -0.517584,-0.240419 -0.11109,-0.299934 0.157771,0.622644 0.283837,0.916598"
       id="path40698" />
    <path
       style="fill:none;stroke:#000000;stroke-width:1px;stroke-linecap:butt;stroke-linejoin:miter;stroke-opacity:1"
       d="m 36.662696,43.313762 c 0.523149,0.656144 1.046298,1.312287 1.569446,1.968431 0.150267,0 0.333761,-0.09424 0.4508,0 0.160268,0.129055 -1.256532,0.936525 -1.502664,0.465812 -0.199966,-0.382423 1.737132,-0.322989 1.369093,0.405707 -0.197218,0.390482 -1.257051,0.204248 -0.951686,-0.135236 0.242354,-0.269432 1.359545,-0.369199 1.101953,0.210367 -0.125323,0.281968 -0.860924,0.110555 -0.968383,-0.105183 -0.392249,-0.787492 1.247099,-0.661486 1.352397,-0.345603 0.244766,0.734277 0.445233,1.482585 0.66785,2.223877"
       id="path40700" />
    <path
       style="fill:none;stroke:#000000;stroke-width:1px;stroke-linecap:butt;stroke-linejoin:miter;stroke-opacity:1"
       d="m 64.01117,49.699893 c 1.483194,0.624858 2.730443,1.599287 3.489518,3.035291 0.772165,1.460767 -3.356188,-0.421166 -2.971934,0.270471 0.14573,0.262307 0.510088,0.317416 0.751332,0.495865 0.83377,0.616744 1.507437,1.342657 1.769803,2.374138 0.126016,0.495425 0.222496,1.825318 -0.517584,1.953405 -0.401359,0.06946 -1.957797,-0.992928 -2.471046,-1.202095 -0.248104,-0.101111 -0.881446,-0.519697 -0.751332,-0.285498 0.31774,0.571916 0.738744,1.032986 0.93499,1.682933 0.250461,0.8295 0.648138,3.922701 0.100178,4.673146 -0.516399,0.707221 -2.701446,-0.660143 -3.17229,-1.036807 -0.359304,-0.287435 -0.467495,-0.60343 -0.467495,-0.555969 0,0.689593 0.525993,1.61443 0.116874,2.253928 -0.429425,0.671239 -2.039962,0.265802 -1.719715,-0.19534"
       id="path40702" />
    <path
       style="fill:none;stroke:#000000;stroke-width:1px;stroke-linecap:butt;stroke-linejoin:miter;stroke-opacity:1"
       d="m 33.23996,54.418117 c -0.567673,-0.756318 -1.009378,-1.6262 -1.703018,-2.268954 -0.110632,-0.102516 -2.533243,1.08687 -2.855061,1.382409 -0.230981,0.21212 -0.769802,0.635044 -0.500888,0.796388 0.537863,0.322709 1.389671,0.105766 1.986855,0.195341 0.354974,0.05324 -0.370866,0.252521 -0.417406,0.270471 -0.50233,0.19375 -2.404262,0.649661 -2.404262,1.38241 0,0.572899 1.601448,0.563278 1.970159,0.570995 0.594102,0.01243 1.021796,-0.03604 1.018472,-0.03005 -0.35378,0.636785 -1.807727,1.246908 -1.536056,2.163771 0.185262,0.62524 1.957835,0.130483 2.437654,0.31555 0.167522,0.06461 -0.790541,1.252611 -0.801421,1.487593 -0.05124,1.106761 1.4817,0.19342 1.819893,0.345603 0.283704,0.127663 0.09848,0.555455 0.183659,0.796388 0.04961,0.140325 0.667562,0.751828 0.818117,0.480838 0.516291,-0.929297 0.500356,-2.066561 0.768028,-3.095395"
       id="path40704" />
    <path
       style="fill:none;stroke:#000000;stroke-width:1px;stroke-linecap:butt;stroke-linejoin:miter;stroke-opacity:1"
       d="m 41.855231,61.480427 c 0.516127,1.846788 0.465235,2.99989 2.554528,2.509374 1.738243,-0.408097 1.059238,-1.483493 0.283837,-2.704714 -0.06803,-0.107137 0.146223,0.208626 0.233747,0.300524"
       id="path40840" />
    <path
       style="fill:none;stroke:#000000;stroke-width:1px;stroke-linecap:butt;stroke-linejoin:miter;stroke-opacity:1"
       d="m 55.412595,25.537778 c -1.006879,-0.705024 -1.712149,-1.758342 -2.688098,-2.494348 -0.986934,-0.744291 -4.741011,-2.80168 -6.110831,-1.8933 -0.14169,0.09396 0.247014,0.242872 0.40071,0.31555 0.271962,0.128602 3.682028,1.819282 3.339252,2.5244 -0.184797,0.380142 -1.736182,-0.506675 -1.970159,-0.586022 -1.916771,-0.650016 -3.724604,-0.498142 -5.426285,0.570996 -0.164811,0.103548 -0.531443,0.278407 -0.651154,0.450785 -0.02608,0.03756 1.723023,0.352704 1.753108,0.360629 0.707052,0.186242 2.612514,0.675368 3.022023,1.412462 0.142624,0.256716 -1.21122,0.440626 -1.369094,0.480838 -0.186642,0.04754 -2.886233,1.150502 -2.170513,1.472567 0.304349,0.136953 0.76016,0.0949 1.085256,0.19534 0.528638,0.163321 1.168649,0.497733 1.686323,0.555969"
       id="path40842" />
    <path
       style="fill:none;stroke:#000000;stroke-width:1px;stroke-linecap:butt;stroke-linejoin:miter;stroke-opacity:1"
       d="m 36.245287,24.245525 c 1.733855,-0.822001 3.574901,-1.479408 4.123977,-3.456024 0.856399,-3.082947 -2.153668,0.135505 -2.454351,-0.405707 -0.306122,-0.551003 1.257812,-1.658276 1.319005,-2.539426 0.04071,-0.586168 -0.610628,-0.676179 -1.051864,-0.676179 -0.05404,0 -0.500888,0.08074 -0.500888,0.06011 0,-0.441792 1.184025,-1.16574 1.38579,-1.637855 0.957733,-2.24103 0.448095,-5.9797088 -1.853285,-7.2426244 -6.221856,-3.4143321 -14.084836,2.4538604 -9.717225,9.1058724 0.644216,0.98116 2.265014,1.249157 3.339253,1.442514 0.400398,0.07207 0.915922,0.04024 1.302308,-0.09016 0.016,-0.0054 0.467495,-0.179185 0.467495,-0.12021 0,0.252923 -1.008647,1.079253 -0.851509,1.998484 0.258564,1.512555 1.592712,0.44167 1.736411,0.570995 0.05535,0.04981 -0.1,0.110355 -0.150266,0.165288 -0.205014,0.224044 -0.348331,0.461253 -0.384014,0.766336 -0.07044,0.602214 0.336808,1.210984 0.901598,1.367383 0.877672,0.243041 2.31654,0.157266 3.222378,0.12021 0.165696,-0.0068 0.880881,-0.254403 0.968384,-0.195341 0.05003,0.03377 -0.01113,0.12021 -0.0167,0.180315"
       id="path40844" />
    <path
       style="fill:none;stroke:#000000;stroke-width:1px;stroke-linecap:butt;stroke-linejoin:miter;stroke-opacity:1"
       d="m 41.588091,11.202791 c 0.865969,-0.09565 1.607106,-0.518975 2.404262,-0.826441 0.217009,-0.0837 0.896653,-0.230681 0.684546,-0.135235 -0.0581,0.02614 -0.200895,-0.03393 -0.250444,-0.04508"
       id="path40874" />
    <path
       style="fill:none;stroke:#000000;stroke-width:1px;stroke-linecap:butt;stroke-linejoin:miter;stroke-opacity:1"
       d="m 24.307461,2.1870761 c 0.214777,-0.237051 2.568961,4.3856111 1.619537,3.531155"
       id="path40876" />
    <path
       style="fill:none;stroke:#000000;stroke-width:1px;stroke-linecap:butt;stroke-linejoin:miter;stroke-opacity:1"
       d="m 36.462339,1.6611594 c -0.247093,0.87553 -0.24576,1.7706215 -0.651154,2.5845049"
       id="path40878" />
    <path
       style="fill:none;stroke:#000000;stroke-width:1px;stroke-linecap:butt;stroke-linejoin:miter;stroke-opacity:1"
       d="m 18.647428,12.585201 c 0.733755,-0.07302 2.630247,0.172274 3.072112,-0.225393"
       id="path40880" />
    <path
       style="fill:none;stroke:#000000;stroke-width:1px;stroke-linecap:butt;stroke-linejoin:miter;stroke-opacity:1"
       d="m 21.135171,20.098296 c 0.716688,-0.570407 2.018187,-0.286457 2.738187,-0.82644"
       id="path40882" />
    <text
       xml:space="preserve"
       id="text61374"
       style="font-style:normal;font-variant:normal;font-weight:normal;font-stretch:normal;font-size:32px;line-height:1.25;font-family:'Book Antiqua';-inkscape-font-specification:'Book Antiqua, Normal';font-variant-ligatures:normal;font-variant-caps:normal;font-variant-numeric:normal;font-variant-east-asian:normal;white-space:pre;shape-inside:url(#rect61376);fill-opacity:1;fill:url(#linearGradient82484)"
       transform="matrix(0.46998717,0,0,0.56512201,15.684848,41.866139)"><tspan
         x="16.226562"
         y="64.682625"
         id="tspan82978">creatode</tspan></text>
    <path
       style="fill:none;stroke:#000000;stroke-width:1px;stroke-linecap:butt;stroke-linejoin:miter;stroke-opacity:1"
       d="m 41.304255,52.915498 c -0.180957,0.58128 -0.337003,3.904359 0.40071,3.771574"
       id="path79007" />
    <path
       style="fill:none;stroke:#000000;stroke-width:1px;stroke-linecap:butt;stroke-linejoin:miter;stroke-opacity:1"
       d="m 55.412595,25.537778 c -0.443569,-0.949968 2.415986,-2.934582 2.504439,-2.854977 0.06303,0.05673 -0.834508,1.193497 -0.901598,1.322305 -0.328404,0.630518 -0.02445,1.370809 -0.100177,1.38241 -0.497582,0.07622 -1.001776,0.100175 -1.502664,0.150262"
       id="path79023" />
    <path
       style="fill:none;stroke:#000000;stroke-width:1px;stroke-linecap:butt;stroke-linejoin:miter;stroke-opacity:1"
       d="m 28.698577,55.049218 c -0.0732,-0.527069 -0.369121,-1.006303 -0.651154,-1.457541"
       id="path79025" />
    <path
       style="fill:#ffff00;fill-opacity:0.00784314;stroke:#000000;stroke-width:0.133577"
       d="m 34.106749,22.921182 c -0.556876,-0.281747 -0.653556,-0.758208 -0.245372,-1.209246 0.492644,-0.544366 0.124081,-0.961106 -0.79687,-0.901034 -0.880865,0.05746 -0.930351,-0.16662 -0.281362,-1.274037 0.656429,-1.120111 0.297139,-1.691113 -0.819222,-1.301947 -0.441669,0.153966 -0.835523,0.130742 -1.853771,-0.10931 -1.581745,-0.372897 -2.035548,-0.712755 -2.630226,-1.969799 -0.880333,-1.860873 -0.81196,-3.707465 0.193772,-5.233331 1.787215,-2.7115048 5.579448,-3.7219676 8.623095,-2.2976737 1.786585,0.8360441 2.579582,2.2368417 2.579582,4.5567307 0,1.384968 -0.188194,1.885174 -1.068621,2.840324 -0.384168,0.416774 -0.698487,0.866502 -0.698487,0.999396 0,0.354651 0.588047,0.826535 1.030001,0.826535 0.492407,0 0.484499,0.205114 -0.03184,0.825818 -0.943287,1.133953 -1.07225,1.894861 -0.374995,2.212551 0.365915,0.166722 0.565159,0.142962 1.104442,-0.131711 0.361892,-0.184322 0.717625,-0.363712 0.790519,-0.398645 0.07289,-0.03493 0.132533,0.101924 0.132533,0.304125 0,0.513858 -1.18593,1.774094 -2.032175,2.159503 -0.837176,0.38128 -2.951107,0.440681 -3.621005,0.101751 z"
       id="path79197" />
    <path
       style="fill:#ffff00;fill-opacity:0.00784314;stroke:#000000;stroke-width:0.133577"
       d="m 34.097469,22.648269 c -0.395726,-0.32044 -0.3966,-0.33038 -0.07668,-0.871966 0.426224,-0.721541 0.143267,-1.10114 -0.8208,-1.10114 -0.376863,0 -0.685206,-0.04293 -0.685206,-0.09539 0,-0.05247 0.163739,-0.41635 0.363863,-0.808627 0.200125,-0.392277 0.339285,-0.925868 0.309244,-1.185758 -0.0537,-0.46461 -0.07682,-0.47265 -1.37995,-0.479893 -2.414701,-0.01342 -3.522637,-0.596936 -4.256232,-2.241618 -0.578808,-1.297657 -0.58677,-3.263951 -0.01758,-4.340825 1.844029,-3.4887758 6.978333,-4.4759935 9.901574,-1.9038624 0.843724,0.7423844 1.157078,1.6503344 1.166696,3.3805274 0.0095,1.703554 -0.05094,1.859064 -1.353839,3.484937 -0.463943,0.578951 -0.330199,0.9414 0.50539,1.369617 l 0.529866,0.271542 -0.587277,0.852196 c -0.709365,1.029356 -0.748306,1.583502 -0.139316,1.982527 0.415169,0.272029 0.501549,0.272466 1.179972,0.006 0.402606,-0.158148 0.763844,-0.255709 0.802752,-0.216801 0.164919,0.164919 -1.340404,1.597665 -1.988908,1.893016 -0.977522,0.445197 -2.906804,0.448297 -3.453575,0.0055 z"
       id="path79236" />
    <path
       style="fill:url(#linearGradient81407);fill-opacity:1;stroke:#000000;stroke-width:0.133577"
       d="m 36.402424,24.401167 c 0,-0.0889 -0.615482,-0.21931 -1.367738,-0.289802 -1.226134,-0.114898 -1.427379,-0.187809 -1.943818,-0.704249 -0.335437,-0.335436 -0.576082,-0.756157 -0.576082,-1.007165 0,-0.289254 -0.146515,-0.49784 -0.445325,-0.633987 -0.717177,-0.326767 -0.91467,-1.164365 -0.518169,-2.19763 0.07679,-0.200119 -0.13024,-0.27683 -0.947019,-0.350893 -1.085512,-0.09843 -2.514788,-0.632146 -3.094433,-1.155512 -0.526488,-0.475371 -1.307962,-2.166062 -1.55578,-3.365875 -0.76905,-3.723376 2.366363,-7.2872941 6.80064,-7.730057 1.98068,-0.197771 4.668466,0.7028813 5.685124,1.9050329 1.655428,1.9574671 1.985756,5.6513131 0.647594,7.2416281 l -0.45559,0.541438 0.475695,0.34652 c 0.587332,0.427842 0.615222,1.021476 0.08806,1.874437 -0.365673,0.591671 -0.368176,0.618857 -0.04418,0.479885 0.1889,-0.08102 0.600611,-0.18351 0.914914,-0.227745 0.482038,-0.06784 0.597475,-0.012 0.737712,0.356848 0.187577,0.493365 0.03217,1.369254 -0.386144,2.176311 -0.401652,0.774916 -1.536576,1.745399 -2.768224,2.367133 -1.160819,0.58598 -1.247242,0.611874 -1.247242,0.373682 z m 1.29968,-1.318303 c 0.918647,-0.383835 1.831708,-1.294608 2.160222,-2.154809 0.166127,-0.434997 0.248318,-0.844635 0.182647,-0.910306 -0.06567,-0.06567 -0.546277,0.111513 -1.068014,0.393741 -0.806054,0.436027 -0.991116,0.477868 -1.231441,0.278415 -0.413265,-0.342979 -0.359302,-0.561307 0.423592,-1.713822 0.388532,-0.571965 0.706612,-1.099577 0.706844,-1.172471 2.29e-4,-0.07289 -0.225814,-0.132533 -0.502324,-0.132533 -0.276509,0 -0.639263,-0.150851 -0.80612,-0.335226 -0.29011,-0.320569 -0.268796,-0.37416 0.487469,-1.225675 0.714925,-0.804967 0.802953,-1.003514 0.916975,-2.068229 0.16845,-1.572961 0.01456,-2.703703 -0.508299,-3.73477 C 37.96599,9.3257874 37.651346,9.0138909 36.66749,8.5266975 34.896223,7.6495881 32.442832,7.5643925 30.482612,8.3119236 c -1.453175,0.554169 -3.0856,2.1743044 -3.524826,3.4982894 -0.698108,2.104349 0.150713,5.26282 1.615128,6.009909 1.026209,0.523532 2.686192,0.80508 3.470264,0.588588 0.556493,-0.153655 0.67517,-0.134091 0.819209,0.135048 0.12622,0.235844 0.05947,0.46243 -0.266291,0.903979 -0.239102,0.324085 -0.434732,0.82276 -0.434732,1.108168 0,0.495966 0.02781,0.514409 0.628678,0.416902 1.041702,-0.169045 1.501948,0.240943 0.86443,0.770035 -0.401697,0.33338 -0.248234,1.092517 0.274,1.355395 0.593789,0.298896 3.045383,0.288909 3.773632,-0.01537 z"
       id="path79392" />
    <path
       style="fill:#ffff00;fill-opacity:0.00784314;stroke:#000000;stroke-width:0.133577"
       d="m 41.703747,11.233225 c 0,-0.338826 0.194935,-0.476808 1.192798,-0.844309 0.930879,-0.342831 1.205344,-0.386997 1.249933,-0.201136 0.08796,0.366627 0.384642,0.281998 0.384642,-0.109719 0,-0.2415219 0.08369,-0.3157608 0.273741,-0.2428309 0.541073,0.2076289 0.147345,0.6366479 -0.980584,1.0684749 -2.033848,0.778659 -2.12053,0.792129 -2.12053,0.32952 z"
       id="path81409" />
    <path
       style="fill:url(#linearGradient81491);fill-opacity:1.0;stroke:#000000;stroke-width:0.133577"
       d="m 41.703747,11.236597 c 0,-0.326058 0.212277,-0.482048 1.176697,-0.864688 1.102268,-0.4373315 1.19133,-0.4475934 1.408066,-0.162239 0.212815,0.280192 0.231821,0.27318 0.23699,-0.08743 0.004,-0.2803283 0.08363,-0.3621184 0.279361,-0.2870089 0.518417,0.1989349 0.165546,0.6116889 -0.892229,1.0436389 -0.583145,0.238132 -1.318704,0.505549 -1.634575,0.594261 -0.525634,0.147623 -0.57431,0.127576 -0.57431,-0.236533 z"
       id="path81448" />
    <path
       style="fill:url(#linearGradient81573);fill-opacity:1.0;stroke:#000000;stroke-width:0.133577"
       d="M 35.755918,4.1053787 C 35.602617,4.0078331 35.61724,3.680674 35.814133,2.802968 c 0.231446,-1.0317399 0.305551,-1.1609998 0.618661,-1.0791199 0.314209,0.082168 0.341748,0.1861808 0.235998,0.8913706 -0.2143,1.4290547 -0.437164,1.792854 -0.912874,1.49016 z"
       id="path81530" />
    <path
       style="fill:url(#linearGradient81618);fill-opacity:1.0;stroke:#000000;stroke-width:0.133577"
       d="M 26.046246,5.7466822 C 26.346616,5.2882591 26.346184,5.2723846 26.035046,5.3350378 25.61064,5.4204978 24.240615,2.8497861 24.594128,2.6313027 24.760531,2.5284603 24.73387,2.4071866 24.484212,2.1313176 24.302929,1.9310023 24.241036,1.7671079 24.346673,1.7671079 c 0.265917,0 0.783888,0.7636855 1.540491,2.2712679 0.685129,1.3651664 0.742954,2.0141182 0.188886,2.1198264 -0.331675,0.063279 -0.332593,0.0506 -0.0298,-0.41152 z"
       id="path81575" />
    <path
       style="fill:url(#linearGradient81663);fill-opacity:1;stroke:#000000;stroke-width:0.133577"
       d="m 20.015861,13.130851 c 0.171933,-0.0448 0.410493,-0.04186 0.530132,0.0065 0.119639,0.04841 -0.02103,0.08506 -0.312607,0.08146 -0.291573,-0.0036 -0.389459,-0.04321 -0.217525,-0.08801 z"
       id="path81620" />
    <path
       style="fill:url(#linearGradient81708);fill-opacity:1.0;stroke:#000000;stroke-width:0.133577"
       d="m 19.39401,13.127984 c -0.568069,-0.06234 -0.662666,-0.135282 -0.662666,-0.510976 0,-0.435225 0.01007,-0.437901 1.45591,-0.386932 1.179002,0.04156 1.466366,0.106079 1.510886,0.339213 0.03727,0.195189 -0.104349,0.317897 -0.439822,0.381079 -0.27214,0.05125 -0.653839,0.128548 -0.848221,0.171763 -0.194382,0.04322 -0.651621,0.04585 -1.016087,0.0059 z"
       id="path81665" />
    <path
       style="fill:url(#linearGradient81753);fill-opacity:1;stroke:#000000;stroke-width:0.133577"
       d=""
       id="path81710" />
    <path
       style="fill:url(#linearGradient81798);fill-opacity:1.0;stroke:#000000;stroke-width:0.133577"
       d="m 21.244499,20.11355 c -0.118753,-0.118753 -0.215915,-0.273364 -0.215915,-0.343579 0,-0.15937 0.910159,-0.446884 1.899252,-0.599965 0.610502,-0.09449 0.772006,-0.06047 0.865126,0.182194 0.144957,0.377751 -0.139065,0.553293 -1.137453,0.70301 -0.433705,0.06504 -0.880027,0.153352 -0.991825,0.196253 -0.111798,0.0429 -0.300431,-0.01916 -0.419185,-0.137913 z"
       id="path81755" />
    <path
       style="fill:#3f615f;fill-opacity:0.00784314;stroke:#000000;stroke-width:0.133577"
       d="m 30.452486,78.194526 c 0.03179,-0.09719 0.25038,-0.204607 0.485744,-0.238703 0.235365,-0.0341 0.486358,-0.153376 0.557763,-0.265067 0.155892,-0.243843 0.181049,-5.974602 0.02798,-6.373498 -0.06361,-0.165755 -0.315331,-0.279519 -0.618488,-0.279519 -0.835734,0 -0.586521,-0.246122 0.637394,-0.629489 l 1.14862,-0.359783 v 0.955319 c 0,0.776572 0.0496,0.936288 0.265066,0.853604 0.145786,-0.05594 0.263869,-0.08433 0.262406,-0.06308 -0.0015,0.02125 -0.117253,0.356711 -0.25731,0.745475 -0.264208,0.733374 -0.365517,3.808464 -0.15942,4.838949 0.0958,0.478981 0.203121,0.568485 0.795199,0.663162 1.229631,0.196626 0.722256,0.329345 -1.259063,0.329345 -1.216529,0 -1.92207,-0.06611 -1.885889,-0.176711 z"
       id="path81911" />
  </g>
</svg>
